<svg xmlns="http://www.w3.org/2000/svg" width="453" height="509">

<g transform="translate(0,509) scale(0.1,-0.1)" fill="#e7a35f" stroke="none">
<path d="M2018 4914 c-165 -39 -306 -169 -364 -332 -47 -134 -25 -321 53 -445
65 -103 198 -200 313 -226 75 -17 201 -13 271 9 159 49 290 179 340 339 31 97
29 233 -4 323 -92 254 -351 395 -609 332z m276 -193 c118 -58 179 -154 184
-291 5 -116 -20 -184 -97 -261 -77 -76 -146 -102 -256 -97 -98 5 -160 32 -225
98 -75 74 -95 127 -95 245 0 118 20 171 95 245 74 75 144 101 257 96 57 -2 86
-10 137 -35z"/>
<path d="M1595 3777 c-157 -59 -274 -195 -305 -357 -6 -30 -30 -208 -53 -395
l-43 -340 -394 -6 c-452 -6 -452 -6 -546 -92 -30 -27 -67 -73 -82 -101 -27
-51 -27 -51 -27 -276 0 -224 0 -225 27 -283 34 -73 125 -165 198 -200 79 -38
141 -47 336 -47 l174 0 0 -635 0 -635 -181 0 -181 0 -29 -29 c-17 -18 -29 -40
-29 -56 0 -16 12 -38 29 -56 l29 -29 1830 0 1829 0 27 21 c21 16 26 29 26 64
0 35 -5 48 -26 64 l-27 21 -1558 0 -1559 0 0 689 0 689 -26 31 -26 31 -232 0
c-306 0 -364 17 -431 124 -30 49 -30 50 -33 219 -2 94 -1 180 2 193 9 36 57
85 101 105 38 18 121 19 2025 19 2161 1 2009 -4 2031 58 13 38 -10 88 -47 102
-15 6 -287 10 -680 10 -360 0 -654 3 -654 8 -1 55 -103 769 -114 802 -40 110
-143 221 -253 273 l-68 32 -500 2 c-497 2 -500 2 -560 -20z m1062 -173 c58
-28 112 -83 143 -143 18 -36 41 -167 65 -371 13 -111 46 -356 51 -382 l6 -28
-122 0 -121 0 5 143 c3 78 10 226 17 329 14 221 10 252 -34 278 -31 19 -54 20
-540 20 l-509 0 -34 -34 -34 -34 0 -255 0 -256 24 -28 24 -28 459 -5 c428 -5
458 -6 457 -22 0 -10 -1 -38 -2 -63 l-2 -45 -570 0 -570 0 0 30 c0 16 7 76 15
132 8 57 28 209 45 338 33 248 45 291 102 356 33 37 84 72 126 84 15 5 234 9
488 9 l460 1 51 -26z m-126 -328 c5 -6 -8 -218 -16 -263 l-6 -33 -394 0 -395
0 0 143 c0 79 3 147 7 150 7 8 797 10 804 3z"/>
</g>
</svg>
